<?xml version="1.0" encoding="UTF-8"?>
<svg id="Layer_1" data-name="Layer 1" xmlns="http://www.w3.org/2000/svg" xmlns:xlink="http://www.w3.org/1999/xlink" viewBox="0 0 512 512">
  <defs>
    <style>
      .cls-1 {
        fill: #fff;
      }

      .cls-2 {
        fill: none;
      }

      .cls-3 {
        fill: #29abe2;
        opacity: .39;
      }

      .cls-4 {
        clip-path: url(#clippath);
      }
    </style>
    <clipPath id="clippath">
      <path class="cls-2" d="M507.48,106.12c6.17,37.49,4.04,76.12,4.48,114.08-.13,44.33.3,88.95-.26,133.5-.29,64.55-14.42,127.52-83.64,148.47-43.83,12.98-90.58,9.03-135.74,9.8-42.25-.07-84.77.17-127.26-.14-62.34.03-127.66-9.71-152.4-75.47C-1.15,399.34.32,357.38.03,318.14c0-23.74,0-47.98,0-71.72.13-31.29-.34-62.32.4-93.85C1.14,103.99,10.7,50.23,55,22.9,91.38.36,136.56.5,178.49.07c24.06-.07,49.1,0,72.97-.03,35.56.15,71.49-.37,107.44.39,75.26.74,134.96,23.63,148.49,105.22l.09.48Z"/>
    </clipPath>
  </defs>
  <g class="cls-4">
    <g>
      <path class="cls-1" d="M507.48,106.12c6.17,37.49,4.04,76.12,4.48,114.08-.13,44.33.3,88.95-.26,133.5-.29,64.55-14.42,127.52-83.64,148.47-43.83,12.98-90.58,9.03-135.74,9.8-42.25-.07-84.77.17-127.26-.14-62.34.03-127.66-9.71-152.4-75.47C-1.15,399.34.32,357.38.03,318.14c0-23.74,0-47.98,0-71.72.13-31.29-.34-62.32.4-93.85C1.14,103.99,10.7,50.23,55,22.9,91.38.36,136.56.5,178.49.07c24.06-.07,49.1,0,72.97-.03,35.56.15,71.49-.37,107.44.39,75.26.74,134.96,23.63,148.49,105.22l.09.48Z"/>
      <path class="cls-3" d="M575.74,23.44l-18.6-18.6c-47.54-47.54-110.74-73.72-177.97-73.72S252.4-44.19,205.37.78c-23.25-6.96-47.59-10.53-72.5-10.53C65.64-9.75,2.44,16.43-45.1,63.97l-18.59,18.6c-47.49,47.49-73.64,110.7-73.64,177.97s26.15,130.48,73.64,177.97l112.19,112.19c47.54,47.54,110.74,73.72,177.97,73.72s130.43-26.18,177.97-73.72l171.31-171.32c98.13-98.13,98.13-257.81,0-355.94ZM446.79,242.43c-16.97,19.42-37.17,37.75-54.82,55.99-28.02,28.06-56.19,56.25-84.14,84.24-12.32,12.1-23.95,24.57-36.56,36-13.26,12.09-30.15,19.01-48.12,18.05-24.42-.61-42.29-17.16-58.3-33.97-7.64-7.63-15.18-15.23-22.94-22.97-16.53-16.55-33.41-33.45-50.06-50.12-10.22-10.52-21.53-20.5-29.95-32.35-13.25-18.53-15.42-44.31-5.2-64.74,3.89-8.01,9.55-15,15.58-21.41,7.74-8.06,15.66-16.13,25.1-22.36,21.2-14.36,50.97-13.78,71.71,1.19,13.57,9.83,24.51,22.62,36.52,34.21,7.68,6.38,14.24,19.17,25.3,14.09,5.01-2.42,9.33-7.45,13.39-11.38,7.64-7.66,14.26-14.27,22.12-22.14,22.59-22.26,45.65-46.49,68.72-68.24l.33-.29c18.44-16.92,46.59-22.49,69.62-12.03,13.49,5.89,23.99,16.52,33.99,26.87,26.05,24.67,30.8,63.16,7.7,91.36Z"/>
      <path class="cls-3" d="M524.46,74.72l-18.6-18.6C472.03,22.29,427.04,3.65,379.18,3.65s-92.85,18.64-126.69,52.47l-30.38,30.38c-26.86-15.48-57.43-23.73-89.25-23.73-47.86,0-92.85,18.64-126.69,52.48l-18.59,18.59c-33.81,33.81-52.42,78.8-52.42,126.69s18.62,92.88,52.42,126.69l112.19,112.19c33.84,33.84,78.83,52.47,126.69,52.47s92.85-18.64,126.69-52.47l171.32-171.32c69.85-69.85,69.85-183.52,0-253.38ZM446.79,242.43c-16.97,19.42-37.17,37.75-54.82,55.99-28.02,28.06-56.19,56.25-84.14,84.24-12.32,12.1-23.95,24.57-36.56,36-13.26,12.09-30.15,19.01-48.12,18.05-24.42-.61-42.29-17.16-58.3-33.97-7.64-7.63-15.18-15.23-22.94-22.97-16.53-16.55-33.41-33.45-50.06-50.12-10.22-10.52-21.53-20.5-29.95-32.35-13.25-18.53-15.42-44.31-5.2-64.74,3.89-8.01,9.55-15,15.58-21.41,7.74-8.06,15.66-16.13,25.1-22.36,21.2-14.36,50.97-13.78,71.71,1.19,13.57,9.83,24.51,22.62,36.52,34.21,7.68,6.38,14.24,19.17,25.3,14.09,5.01-2.42,9.33-7.45,13.39-11.38,7.64-7.66,14.26-14.27,22.12-22.14,22.59-22.26,45.65-46.49,68.72-68.24l.33-.29c18.44-16.92,46.59-22.49,69.62-12.03,13.49,5.89,23.99,16.52,33.99,26.87,26.05,24.67,30.8,63.16,7.7,91.36Z"/>
      <path class="cls-3" d="M491.65,107.53l-18.6-18.6c-25.07-25.07-58.41-38.88-93.88-38.88s-68.8,13.81-93.87,38.88l-58.84,58.85c-25.04-24.9-58.27-38.61-93.59-38.61s-68.8,13.81-93.87,38.89l-18.59,18.6c-25.04,25.04-38.83,58.38-38.83,93.87s13.79,68.83,38.83,93.88l112.19,112.19c25.07,25.07,58.41,38.88,93.87,38.88s68.8-13.81,93.87-38.88l171.32-171.32c51.76-51.76,51.76-135.98,0-187.75ZM446.79,242.43c-16.97,19.42-37.17,37.75-54.82,55.99-28.02,28.06-56.19,56.25-84.14,84.24-12.32,12.1-23.95,24.57-36.56,36-13.26,12.09-30.15,19.01-48.12,18.05-24.42-.61-42.29-17.16-58.3-33.97-7.64-7.63-15.18-15.23-22.94-22.97-16.53-16.55-33.41-33.45-50.06-50.12-10.22-10.52-21.53-20.5-29.95-32.35-13.25-18.53-15.42-44.31-5.2-64.74,3.89-8.01,9.55-15,15.58-21.41,7.74-8.06,15.66-16.13,25.1-22.36,21.2-14.36,50.97-13.78,71.71,1.19,13.57,9.83,24.51,22.62,36.52,34.21,7.68,6.38,14.24,19.17,25.3,14.09,5.01-2.42,9.33-7.45,13.39-11.38,7.64-7.66,14.26-14.27,22.12-22.14,22.59-22.26,45.65-46.49,68.72-68.24l.33-.29c18.44-16.92,46.59-22.49,69.62-12.03,13.49,5.89,23.99,16.52,33.99,26.87,26.05,24.67,30.8,63.16,7.7,91.36Z"/>
    </g>
  </g>
</svg>